649  3  0  0
   0    -0.89999991655349731  -0.60000002384185791  1.210724889233461e-07
   1    -0.89999991655349731  -0.60000002384185791  0.18000011146068573
   2    -0.89999997615814209  -0.46666669845581055  1.1126256538318557e-07
   3    -0.89999991655349731  -0.46666666865348816  0.18000009655952454
   4    -0.89999997615814209  -0.3333333432674408  1.0101801706241531e-07
   5    -0.89999997615814209  -0.3333333432674408  0.18000006675720215
   6    -0.89982706308364868  -0.1507420688867569  7.3594492278061807e-08
   7    -0.89982700347900391  -0.15074202418327332  0.18000005185604095
   8    -0.85558289289474487  -0.070681065320968628  -0.026204269379377365
   9    -0.89944958686828613  -0.1152130663394928  -0.0013422947376966476
  10    -0.88386338949203491  -0.0051802275702357292  0.20625685155391693
  11    -0.85558289289474487  0.070681057870388031  -0.026204286143183708
  12    -0.89944958686828613  0.11521309614181519  -0.0013423189520835876
  13    -0.88386338949203491  0.0051802936941385269  0.20625685155391693
  14    -0.89982700347900391  0.15074203908443451  3.7654899642802775e-08
  15    -0.89982700347900391  0.1507420688867569  0.18000002205371857
  16    -0.89999997615814209  0.3333333432674408  1.589908116272909e-08
  17    -0.89999997615814209  0.3333333432674408  0.18000000715255737
  18    -0.89999997615814209  0.46666666865348816  4.5128345504963363e-12
  19    -0.89999997615814209  0.46666669845581055  0.17999999225139618
  20    -0.90000003576278687  0.59999990463256836  -1.5893991900384208e-08
  21    -0.90000003576278687  0.59999990463256836  0.17999996244907379
  22    -0.72187501192092896  -0.59999996423721313  1.1614987727170956e-07
  23    -0.6799999475479126  -0.60000002384185791  0.18000009655952454
  24    -0.6799999475479126  -0.60000008344650269  0.32999998331069946
  25    -0.67999988794326782  -0.60000008344650269  0.4699999988079071
  26    -0.67999988794326782  -0.60000002384185791  0.61000001430511475
  27    -0.67999988794326782  -0.60000008344650269  0.75
  28    -0.67999988794326782  -0.60000008344650269  0.85000002384185791
  29    -0.72187501192092896  -0.46666669845581055  1.0058283805847168e-07
  30    -0.68000000715255737  -0.46666669845581055  0.18000008165836334
  31    -0.6799999475479126  -0.46666669845581055  0.32999998331069946
  32    -0.68000000715255737  -0.46666669845581055  0.47000002861022949
  33    -0.6799999475479126  -0.46666669845581055  0.61000001430511475
  34    -0.6799999475479126  -0.46666669845581055  0.75
  35    -0.67999988794326782  -0.46666666865348816  0.85000002384185791
  36    -0.72187501192092896  -0.3333333432674408  8.4360742391709209e-08
  37    -0.68000000715255737  -0.3333333432674408  0.18000006675720215
  38    -0.6799999475479126  -0.3333333432674408  0.32999998331069946
  39    -0.68000000715255737  -0.3333333432674408  0.47000002861022949
  40    -0.6799999475479126  -0.3333333432674408  0.61000001430511475
  41    -0.6799999475479126  -0.3333333432674408  0.75
  42    -0.6799999475479126  -0.3333333432674408  0.85000002384185791
  43    -0.71890157461166382  -0.16036012768745422  -0.00076469470513984561
  44    -0.68058556318283081  -0.16362211108207703  0.18000005185604095
  45    -0.68000000715255737  -0.19997996091842651  0.32998961210250854
  46    -0.68000000715255737  -0.20000001788139343  0.47000002861022949
  47    -0.6799999475479126  -0.20000001788139343  0.61000001430511475
  48    -0.6799999475479126  -0.20000001788139343  0.75
  49    -0.6799999475479126  -0.20000000298023224  0.84999996423721313
  50    -0.7055092453956604  -0.079656794667243958  -0.022091630846261978
  51    -0.65628480911254883  -0.13329584896564484  -0.00014285871293395758
  52    -0.7065543532371521  -8.5145690498222848e-10  0.25347894430160522
  53    -0.6840483546257019  -0.067724578082561493  0.284371018409729
  54    -0.68000000715255737  -0.066666670143604279  0.47000002861022949
  55    -0.6799999475479126  -0.066666670143604279  0.61000001430511475
  56    -0.6799999475479126  -0.066666670143604279  0.75
  57    -0.6799999475479126  -0.066666670143604279  0.84999996423721313
  58    -0.7055092453956604  0.079656794667243958  -0.02209164947271347
  59    -0.65628480911254883  0.13329584896564484  -0.00014289049431681633
  60    -0.7065543532371521  -8.5146145689662944e-10  0.25347894430160522
  61    -0.6840483546257019  0.067724578082561493  0.28437104821205139
  62    -0.68000000715255737  0.066666670143604279  0.47000002861022949
  63    -0.6799999475479126  0.066666670143604279  0.61000001430511475
  64    -0.6799999475479126  0.066666670143604279  0.75
  65    -0.6799999475479126  0.066666670143604279  0.84999996423721313
  66    -0.71890157461166382  0.16036011278629303  -0.00076473411172628403
  67    -0.68058556318283081  0.16362214088439941  0.18000000715255737
  68    -0.68000000715255737  0.19997996091842651  0.32998961210250854
  69    -0.68000000715255737  0.20000001788139343  0.47000002861022949
  70    -0.6799999475479126  0.20000001788139343  0.61000001430511475
  71    -0.6799999475479126  0.20000001788139343  0.75
  72    -0.6799999475479126  0.20000001788139343  0.84999996423721313
  73    -0.72187501192092896  0.3333333432674408  4.8878905367644165e-09
  74    -0.68000000715255737  0.3333333432674408  0.18000000715255737
  75    -0.68000000715255737  0.3333333432674408  0.32999998331069946
  76    -0.68000000715255737  0.3333333432674408  0.47000002861022949
  77    -0.6799999475479126  0.3333333432674408  0.61000001430511475
  78    -0.6799999475479126  0.3333333432674408  0.75
  79    -0.6799999475479126  0.3333333432674408  0.84999990463256836
  80    -0.72187501192092896  0.46666669845581055  -1.1006681788217065e-08
  81    -0.68000000715255737  0.46666666865348816  0.17999999225139618
  82    -0.68000000715255737  0.46666669845581055  0.32999998331069946
  83    -0.68000000715255737  0.46666669845581055  0.47000002861022949
  84    -0.6799999475479126  0.46666669845581055  0.61000001430511475
  85    -0.6799999475479126  0.46666669845581055  0.75
  86    -0.6799999475479126  0.46666669845581055  0.84999990463256836
  87    -0.72187501192092896  0.59999990463256836  -2.6901236793719363e-08
  88    -0.68000006675720215  0.59999990463256836  0.17999996244907379
  89    -0.68000006675720215  0.59999984502792358  0.33000001311302185
  90    -0.68000000715255737  0.59999984502792358  0.47000002861022949
  91    -0.6799999475479126  0.59999984502792358  0.61000001430511475
  92    -0.6799999475479126  0.59999978542327881  0.75
  93    -0.6799999475479126  0.59999978542327881  0.84999990463256836
  94    -0.59062498807907104  -0.59999996423721313  1.0759879387478577e-07
  95    -0.59062498807907104  -0.59999996423721313  0.18999999761581421
  96    -0.59062498807907104  -0.60000002384185791  0.32999998331069946
  97    -0.59062498807907104  -0.60000002384185791  0.47000002861022949
  98    -0.59062498807907104  -0.60000002384185791  0.61000001430511475
  99    -0.59062498807907104  -0.60000002384185791  0.75
 100    -0.59062498807907104  -0.60000008344650269  0.85000002384185791
 101    -0.59062498807907104  -0.46666669845581055  9.4063409505906748e-08
 102    -0.59062498807907104  -0.46666669845581055  0.85000002384185791
 103    -0.59062498807907104  -0.3333333432674408  7.9628051707913983e-08
 104    -0.59062498807907104  -0.3333333432674408  0.85000002384185791
 105    -0.59062999486923218  -0.19999462366104126  6.0303136706352234e-08
 106    -0.59062498807907104  -0.20000001788139343  0.84999996423721313
 107    -0.63026213645935059  -0.067299164831638336  -0.0015637404285371304
 108    -0.59062498807907104  -0.066666670143604279  0.84999996423721313
 109    -0.63026213645935059  0.067299164831638336  -0.0015637564938515425
 110    -0.59062498807907104  0.066666670143604279  0.84999996423721313
 111    -0.59062999486923218  0.19999462366104126  1.257285475730896e-08
 112    -0.59062498807907104  0.20000001788139343  0.84999996423721313
 113    -0.59062498807907104  0.3333333432674408  2.1762566859706567e-08
 114    -0.59062498807907104  0.3333333432674408  0.84999990463256836
 115    -0.59062498807907104  0.46666669845581055  -1.814453298720764e-08
 116    -0.59062498807907104  0.46666669845581055  0.84999990463256836
 117    -0.59062498807907104  0.59999990463256836  -3.5014753763107365e-08
 118    -0.59062498807907104  0.59999990463256836  0.18999999761581421
 119    -0.59062498807907104  0.59999984502792358  0.32999998331069946
 120    -0.59062498807907104  0.59999984502792358  0.47000002861022949
 121    -0.59062498807907104  0.59999984502792358  0.61000001430511475
 122    -0.59062498807907104  0.59999978542327881  0.75
 123    -0.59062498807907104  0.59999978542327881  0.84999990463256836
 124    -0.45937499403953552  -0.59999996423721313  1.0014821327786194e-07
 125    -0.5199999213218689  -0.59999996423721313  0.18000009655952454
 126    -0.5199999213218689  -0.60000002384185791  0.32999998331069946
 127    -0.5199999213218689  -0.60000002384185791  0.4699999988079071
 128    -0.51999986171722412  -0.60000002384185791  0.61000001430511475
 129    -0.51999986171722412  -0.60000002384185791  0.75
 130    -0.51999986171722412  -0.60000008344650269  0.85000002384185791
 131    -0.45937499403953552  -0.46666669845581055  8.6147394995350624e-08
 132    -0.51999998092651367  -0.46666669845581055  0.18000008165836334
 133    -0.51999998092651367  -0.46666669845581055  0.32999998331069946
 134    -0.51999998092651367  -0.46666669845581055  0.47000002861022949
 135    -0.5199999213218689  -0.46666669845581055  0.61000001430511475
 136    -0.5199999213218689  -0.46666669845581055  0.75
 137    -0.5199999213218689  -0.46666666865348816  0.85000002384185791
 138    -0.45937499403953552  -0.3333333432674408  7.1246176958084106e-08
 139    -0.51999998092651367  -0.3333333432674408  0.18000006675720215
 140    -0.51999998092651367  -0.3333333432674408  0.32999998331069946
 141    -0.51999998092651367  -0.3333333432674408  0.47000002861022949
 142    -0.5199999213218689  -0.3333333432674408  0.61000001430511475
 143    -0.5199999213218689  -0.3333333432674408  0.75
 144    -0.5199999213218689  -0.3333333432674408  0.84999996423721313
 145    -0.45937499403953552  -0.20000001788139343  4.6761869043621118e-08
 146    -0.51999998092651367  -0.20000001788139343  0.18000005185604095
 147    -0.51999998092651367  -0.20000001788139343  0.32999998331069946
 148    -0.51999998092651367  -0.20000001788139343  0.47000002861022949
 149    -0.5199999213218689  -0.20000001788139343  0.61000001430511475
 150    -0.5199999213218689  -0.20000001788139343  0.75
 151    -0.5199999213218689  -0.20000000298023224  0.84999996423721313
 152    -0.45937499403953552  -0.066666670143604279  8.4325847637956031e-08
 153    -0.51999998092651367  -0.066666677594184875  0.18000002205371857
 154    -0.51999998092651367  -0.066666670143604279  0.32999998331069946
 155    -0.51999998092651367  -0.066666670143604279  0.47000002861022949
 156    -0.5199999213218689  -0.066666670143604279  0.61000001430511475
 157    -0.5199999213218689  -0.066666670143604279  0.75
 158    -0.5199999213218689  -0.066666670143604279  0.84999996423721313
 159    -0.45937499403953552  0.066666670143604279  6.5550928241009387e-08
 160    -0.51999998092651367  0.066666662693023682  0.18000000715255737
 161    -0.51999998092651367  0.066666670143604279  0.32999998331069946
 162    -0.51999998092651367  0.066666670143604279  0.47000002861022949
 163    -0.5199999213218689  0.066666670143604279  0.61000001430511475
 164    -0.5199999213218689  0.066666670143604279  0.75
 165    -0.5199999213218689  0.066666670143604279  0.84999996423721313
 166    -0.45937499403953552  0.20000000298023224  -2.8684020492164564e-08
 167    -0.51999998092651367  0.20000000298023224  0.17999999225139618
 168    -0.51999998092651367  0.20000001788139343  0.32999998331069946
 169    -0.51999998092651367  0.20000001788139343  0.47000002861022949
 170    -0.5199999213218689  0.20000001788139343  0.61000001430511475
 171    -0.5199999213218689  0.20000001788139343  0.75
 172    -0.5199999213218689  0.20000001788139343  0.84999990463256836
 173    -0.45937499403953552  0.3333333432674408  -1.1339135852495019e-08
 174    -0.51999998092651367  0.3333333432674408  0.17999997735023499
 175    -0.51999998092651367  0.3333333432674408  0.32999998331069946
 176    -0.51999998092651367  0.3333333432674408  0.47000002861022949
 177    -0.5199999213218689  0.3333333432674408  0.61000001430511475
 178    -0.5199999213218689  0.3333333432674408  0.75
 179    -0.5199999213218689  0.3333333432674408  0.84999990463256836
 180    -0.45937499403953552  0.46666666865348816  -2.7233705068852032e-08
 181    -0.51999998092651367  0.46666666865348816  0.17999996244907379
 182    -0.51999998092651367  0.46666669845581055  0.32999998331069946
 183    -0.51999998092651367  0.46666669845581055  0.47000002861022949
 184    -0.5199999213218689  0.46666669845581055  0.61000001430511475
 185    -0.5199999213218689  0.46666669845581055  0.75
 186    -0.5199999213218689  0.46666669845581055  0.84999990463256836
 187    -0.45937499403953552  0.59999990463256836  -4.2406206546274916e-08
 188    -0.52000004053115845  0.59999990463256836  0.1799999475479126
 189    -0.52000004053115845  0.59999984502792358  0.33000001311302185
 190    -0.52000004053115845  0.59999984502792358  0.47000002861022949
 191    -0.51999998092651367  0.59999984502792358  0.61000001430511475
 192    -0.51999998092651367  0.59999984502792358  0.75
 193    -0.51999998092651367  0.59999978542327881  0.84999990463256836
 194    -0.328125  -0.59999996423721313  9.1766310106322635e-08
 195    -0.328125  -0.59999996423721313  0.18000008165836334
 196    -0.328125  -0.46666669845581055  7.5902789831161499e-08
 197    -0.328125  -0.46666669845581055  0.18000006675720215
 198    -0.32812240719795227  -0.33333072066307068  6.0012098401784897e-08
 199    -0.328125  -0.3333333432674408  0.18000005185604095
 200    -0.26368933916091919  -0.13807505369186401  -0.02321615070104599
 201    -0.28409746289253235  -0.17281948029994965  -0.0059430366382002831
 202    -0.328125  -0.20000001788139343  0.18000003695487976
 203    -0.27089706063270569  -0.073053643107414246  -0.041197597980499268
 204    -0.36008310317993164  -0.083786636590957642  -0.00023089387104846537
 205    -0.328125  -0.066666670143604279  0.18000000715255737
 206    -0.27089709043502808  0.073053553700447083  -0.04119761660695076
 207    -0.3603462278842926  0.083847947418689728  -0.00021869143529329449
 208    -0.328125  0.066666670143604279  0.18000000715255737
 209    -0.26368916034698486  0.13807502388954163  -0.023216322064399719
 210    -0.28409749269485474  0.17281949520111084  -0.0059430608525872231
 211    -0.328125  0.20000001788139343  0.17999999225139618
 212    -0.32812240719795227  0.33333072066307068  -1.9441358745098114e-08
 213    -0.328125  0.3333333432674408  0.17999996244907379
 214    -0.328125  0.46666669845581055  -3.5390257835388184e-08
 215    -0.328125  0.46666669845581055  0.1799999475479126
 216    -0.328125  0.59999990463256836  -5.1719442950570738e-08
 217    -0.328125  0.59999990463256836  0.1799999326467514
 218    -0.19687499105930328  -0.59999996423721313  1.1491768418636639e-05
 219    -0.19687499105930328  -0.59999996423721313  0.18000006675720215
 220    -0.19687499105930328  -0.46666669845581055  6.7520886659622192e-08
 221    -0.19687499105930328  -0.46666669845581055  0.18000005185604095
 222    -0.13475896418094635  -0.26843750476837158  -0.021170662716031075
 223    -0.16861763596534729  -0.28659495711326599  -0.0059470483101904392
 224    -0.19687499105930328  -0.3333333432674408  0.18000003695487976
 225    -0.18301409482955933  -0.18467763066291809  -0.1799999475479126
 226    -0.19250354170799255  -0.19245567917823792  -0.055659826844930649
 227    -0.23961764574050903  -0.24657545983791351  -0.0032356895972043276
 228    -0.19687499105930328  -0.20000001788139343  0.18000002205371857
 229    -0.25063347816467285  -0.069158129394054413  -0.17999996244907379
 230    -0.26506587862968445  -0.064496256411075592  -0.054416842758655548
 231    -0.19687499105930328  -0.066666670143604279  0.18000000715255737
 232    -0.25062453746795654  0.069190554320812225  -0.17999997735023499
 233    -0.26506435871124268  0.064535044133663177  -0.054400987923145294
 234    -0.19687499105930328  0.066666670143604279  0.17999999225139618
 235    -0.18299014866352081  0.18470139801502228  -0.17999999225139618
 236    -0.19248980283737183  0.19246417284011841  -0.055667828768491745
 237    -0.23961766064167023  0.24657544493675232  -0.003235748503357172
 238    -0.19687499105930328  0.20000001788139343  0.17999997735023499
 239    -0.13475903868675232  0.26843753457069397  -0.021170677617192268
 240    -0.16861768066883087  0.28659504652023315  -0.0059470995329320431
 241    -0.19687499105930328  0.3333333432674408  0.17999996244907379
 242    -0.19687499105930328  0.46666669845581055  -4.3306499719619751e-08
 243    -0.19687499105930328  0.46666669845581055  0.1799999475479126
 244    -0.19687499105930328  0.59999996423721313  -5.9170019994780887e-08
 245    -0.19687499105930328  0.59999996423721313  0.17999991774559021
 246    -0.065624997019767761  -0.59999996423721313  7.59338263378595e-08
 247    -0.079999953508377075  -0.59999996423721313  0.18000005185604095
 248    -0.079999461770057678  -0.60000002384185791  0.32999998331069946
 249    -0.079999931156635284  -0.60000002384185791  0.4699999988079071
 250    -0.079999923706054688  -0.60000002384185791  0.61000001430511475
 251    -0.079999916255474091  -0.60000008344650269  0.75
 252    -0.079999908804893494  -0.60000008344650269  0.84999996423721313
 253    -0.065624997019767761  -0.46666669845581055  5.9608282754197717e-08
 254    -0.079999960958957672  -0.46666669845581055  0.18000003695487976
 255    -0.079999953508377075  -0.46666669845581055  0.32999998331069946
 256    -0.079999946057796478  -0.46666669845581055  0.47000002861022949
 257    -0.079999931156635284  -0.46666669845581055  0.61000001430511475
 258    -0.079999923706054688  -0.46666669845581055  0.75
 259    -0.079999916255474091  -0.46666669845581055  0.84999996423721313
 260    -0.068213619291782379  -0.27603238821029663  -0.03625589981675148
 261    -0.080210812389850616  -0.35080805420875549  -0.00092422717716544867
 262    -0.079999968409538269  -0.3333333432674408  0.18000002205371857
 263    -0.079999953508377075  -0.3333333432674408  0.32999998331069946
 264    -0.079999953508377075  -0.3333333432674408  0.47000002861022949
 265    -0.079999938607215881  -0.3333333432674408  0.61000001430511475
 266    -0.079999931156635284  -0.3333333432674408  0.75
 267    -0.079999923706054688  -0.3333333432674408  0.84999996423721313
 268    -0.068023420870304108  -0.25094375014305115  -0.1799999475479126
 269    -0.058686003088951111  -0.26688659191131592  -0.05347481369972229
 270    -0.079999975860118866  -0.20000001788139343  0.18000000715255737
 271    -0.079999960958957672  -0.20000001788139343  0.32999998331069946
 272    -0.079999953508377075  -0.20000001788139343  0.47000002861022949
 273    -0.079999946057796478  -0.20000001788139343  0.61000001430511475
 274    -0.079999938607215881  -0.20000001788139343  0.75
 275    -0.079999931156635284  -0.20000001788139343  0.84999996423721313
 276    -0.050628028810024261  -0.050628025084733963  -0.17999997735023499
 277    -0.027377432212233543  -0.027377428486943245  -0.057691808789968491
 278    -0.0010663345456123352  -0.0010663298889994621  -0.015926744788885117
 279    -0.079999983310699463  -0.066666670143604279  0.17999999225139618
 280    -0.079999968409538269  -0.066666670143604279  0.32999998331069946
 281    -0.079999960958957672  -0.066666670143604279  0.47000002861022949
 282    -0.079999953508377075  -0.066666670143604279  0.61000001430511475
 283    -0.079999938607215881  -0.066666670143604279  0.75
 284    -0.079999938607215881  -0.066666670143604279  0.84999996423721313
 285    -0.050628066062927246  0.050628058612346649  -0.17999999225139618
 286    -0.027377443388104439  0.027377432212233543  -0.057691819965839386
 287    -0.00022348588390741497  0.00022349061327986419  -0.015255018137395382
 288    -0.079999998211860657  0.066666670143604279  0.17999997735023499
 289    -0.079999983310699463  0.066666670143604279  0.32999998331069946
 290    -0.079999975860118866  0.066666670143604279  0.47000002861022949
 291    -0.079999968409538269  0.066666670143604279  0.61000001430511475
 292    -0.079999953508377075  0.066666670143604279  0.75
 293    -0.079999946057796478  0.066666670143604279  0.84999990463256836
 294    -0.068023383617401123  0.25094383955001831  -0.18000000715255737
 295    -0.058686010539531708  0.26688656210899353  -0.053474914282560349
 296    -0.080000005662441254  0.20000000298023224  0.17999996244907379
 297    -0.07999999076128006  0.20000001788139343  0.32999998331069946
 298    -0.079999983310699463  0.20000001788139343  0.47000002861022949
 299    -0.079999968409538269  0.20000001788139343  0.61000001430511475
 300    -0.079999960958957672  0.20000001788139343  0.75
 301    -0.079999953508377075  0.20000000298023224  0.84999990463256836
 302    -0.068213775753974915  0.27603238821029663  -0.036255925893783569
 303    -0.075863219797611237  0.3317933976650238  -0.0039613614790141582
 304    -0.080000013113021851  0.3333333432674408  0.1799999475479126
 305    -0.079999998211860657  0.3333333432674408  0.32999998331069946
 306    -0.07999999076128006  0.3333333432674408  0.47000002861022949
 307    -0.079999983310699463  0.3333333432674408  0.61000001430511475
 308    -0.079999968409538269  0.3333333432674408  0.75
 309    -0.079999960958957672  0.3333333432674408  0.84999990463256836
 310    -0.065624997019767761  0.46666669845581055  -5.3085386753082275e-08
 311    -0.080000020563602448  0.46666666865348816  0.1799999326467514
 312    -0.080000005662441254  0.46666669845581055  0.32999998331069946
 313    -0.079999998211860657  0.46666669845581055  0.47000002861022949
 314    -0.079999983310699463  0.46666669845581055  0.61000001430511475
 315    -0.079999975860118866  0.46666669845581055  0.75
 316    -0.079999968409538269  0.46666666865348816  0.84999984502792358
 317    -0.065625004470348358  0.59999996423721313  1.7584002307557967e-06
 318    -0.080000020563602448  0.59999996423721313  0.17999991774559021
 319    -0.080000013113021851  0.59999990463256836  0.33000001311302185
 320    -0.080000005662441254  0.59999990463256836  0.47000002861022949
 321    -0.079999998211860657  0.59999990463256836  0.61000001430511475
 322    -0.079999983310699463  0.59999984502792358  0.75
 323    -0.079999975860118866  0.59999984502792358  0.84999984502792358
 324    0.065624997019767761  -0.59999996423721313  6.7551923166320194e-08
 325    0.080000042915344238  -0.59999996423721313  0.18000002205371857
 326    0.080000050365924835  -0.60000002384185791  0.32999998331069946
 327    0.080000057816505432  -0.60000002384185791  0.4699999988079071
 328    0.080000072717666626  -0.60000002384185791  0.61000001430511475
 329    0.080000080168247223  -0.60000002384185791  0.75
 330    0.08000008761882782  -0.60000008344650269  0.84999996423721313
 331    0.065624997019767761  -0.46666669845581055  5.1688402891159058e-08
 332    0.080000035464763641  -0.46666669845581055  0.18000003695487976
 333    0.080000050365924835  -0.46666669845581055  0.32999998331069946
 334    0.080000042915344238  -0.46666669845581055  0.47000002861022949
 335    0.080000065267086029  -0.46666669845581055  0.61000001430511475
 336    0.080000072717666626  -0.46666669845581055  0.75
 337    0.080000080168247223  -0.46666666865348816  0.84999996423721313
 338    0.068213693797588348  -0.27603238821029663  -0.036255907267332077
 339    0.081441715359687805  -0.35619089007377625  -0.00047444691881537437
 340    0.080000028014183044  -0.3333333432674408  0.18000002205371857
 341    0.080000042915344238  -0.3333333432674408  0.32999998331069946
 342    0.080000050365924835  -0.3333333432674408  0.47000002861022949
 343    0.080000050365924835  -0.3333333432674408  0.61000001430511475
 344    0.080000065267086029  -0.3333333432674408  0.75
 345    0.080000072717666626  -0.3333333432674408  0.84999996423721313
 346    0.068023413419723511  -0.25094377994537354  -0.17999996244907379
 347    0.058686017990112305  -0.26688656210899353  -0.053474869579076767
 348    0.080000020563602448  -0.20000001788139343  0.18000000715255737
 349    0.080000028014183044  -0.20000001788139343  0.32999998331069946
 350    0.080000042915344238  -0.20000001788139343  0.47000002861022949
 351    0.080000042915344238  -0.20000001788139343  0.61000001430511475
 352    0.080000057816505432  -0.20000001788139343  0.75
 353    0.080000065267086029  -0.20000000298023224  0.84999996423721313
 354    0.049999970942735672  -0.049999970942735672  -0.17999997735023499
 355    0.027377426624298096  -0.027377419173717499  -0.057691808789968491
 356    0.003038718132302165  -0.0028047326486557722  -0.017489956691861153
 357    0.080000013113021851  -0.066666677594184875  0.17999999225139618
 358    0.080000020563602448  -0.066666670143604279  0.32999998331069946
 359    0.080000035464763641  -0.066666670143604279  0.47000002861022949
 360    0.080000035464763641  -0.066666670143604279  0.61000001430511475
 361    0.080000050365924835  -0.066666670143604279  0.75
 362    0.080000050365924835  -0.066666662693023682  0.84999990463256836
 363    0.050628043711185455  0.050628039985895157  -0.17999999225139618
 364    0.027377443388104439  0.027377424761652946  -0.057691823691129684
 365    0.00043963515781797469  0.00043964103679172695  -0.015425130724906921
 366    0.080000005662441254  0.066666662693023682  0.17999997735023499
 367    0.080000013113021851  0.066666670143604279  0.32999998331069946
 368    0.080000020563602448  0.066666670143604279  0.47000002861022949
 369    0.080000028014183044  0.066666670143604279  0.61000001430511475
 370    0.080000035464763641  0.066666670143604279  0.75
 371    0.080000042915344238  0.066666677594184875  0.84999990463256836
 372    0.068023368716239929  0.25094383955001831  -0.18000002205371857
 373    0.058685988187789917  0.26688659191131592  -0.053474884480237961
 374    0.079999998211860657  0.20000000298023224  0.17999996244907379
 375    0.080000005662441254  0.20000001788139343  0.32999998331069946
 376    0.080000013113021851  0.20000001788139343  0.47000002861022949
 377    0.080000020563602448  0.20000001788139343  0.61000001430511475
 378    0.080000028014183044  0.20000001788139343  0.75
 379    0.080000035464763641  0.20000001788139343  0.84999990463256836
 380    0.068213708698749542  0.27603238821029663  -0.036255940794944763
 381    0.081287726759910583  0.35551774501800537  -0.00052207923727110028
 382    0.07999999076128006  0.3333333432674408  0.1799999475479126
 383    0.079999998211860657  0.3333333432674408  0.32999998331069946
 384    0.080000005662441254  0.3333333432674408  0.47000002861022949
 385    0.080000013113021851  0.3333333432674408  0.61000001430511475
 386    0.080000020563602448  0.3333333432674408  0.75
 387    0.080000028014183044  0.3333333432674408  0.84999990463256836
 388    0.065624997019767761  0.46666669845581055  -6.053642209735699e-08
 389    0.079999975860118866  0.46666666865348816  0.1799999326467514
 390    0.07999999076128006  0.46666669845581055  0.32999998331069946
 391    0.079999998211860657  0.46666669845581055  0.47000002861022949
 392    0.080000005662441254  0.46666669845581055  0.61000001430511475
 393    0.080000013113021851  0.46666669845581055  0.75
 394    0.080000020563602448  0.46666669845581055  0.84999984502792358
 395    0.065624989569187164  0.59999996423721313  1.5289651855709963e-06
 396    0.079999968409538269  0.59999996423721313  0.17999991774559021
 397    0.079999983310699463  0.59999990463256836  0.33000001311302185
 398    0.07999999076128006  0.59999990463256836  0.47000002861022949
 399    0.079999998211860657  0.59999990463256836  0.61000001430511475
 400    0.080000005662441254  0.59999990463256836  0.75
 401    0.080000013113021851  0.59999984502792358  0.84999984502792358
 402    0.19687499105930328  -0.59999996423721313  5.9170016442067208e-08
 403    0.19687499105930328  -0.59999996423721313  0.18000003695487976
 404    0.19687499105930328  -0.46666669845581055  4.3306499719619751e-08
 405    0.19687499105930328  -0.46666669845581055  0.18000002205371857
 406    0.13475899398326874  -0.26843750476837158  -0.021170679479837418
 407    0.16861765086650848  -0.28659498691558838  -0.0059470687992870808
 408    0.19687499105930328  -0.3333333432674408  0.18000000715255737
 409    0.18299013376235962  -0.1847013384103775  -0.17999997735023499
 410    0.19248980283737183  -0.19246417284011841  -0.055667843669652939
 411    0.23961766064167023  -0.24657543003559113  -0.0032357196323573589
 412    0.19687499105930328  -0.20000001788139343  0.17999999225139618
 413    0.25062453746795654  -0.069190509617328644  -0.17999997735023499
 414    0.26506435871124268  -0.064535036683082581  -0.054401002824306488
 415    0.19687499105930328  -0.066666670143604279  0.17999997735023499
 416    0.25062456727027893  0.069190487265586853  -0.18000000715255737
 417    0.26506432890892029  0.064534984529018402  -0.054401099681854248
 418    0.19687499105930328  0.066666670143604279  0.17999996244907379
 419    0.18299011886119843  0.18470138311386108  -0.18000002205371857
 420    0.1924898624420166  0.19246411323547363  -0.055667880922555923
 421    0.23961766064167023  0.24657544493675232  -0.0032357780728489161
 422    0.19687499105930328  0.20000001788139343  0.1799999475479126
 423    0.13475903868675232  0.26843756437301636  -0.021170675754547119
 424    0.16861768066883087  0.28659504652023315  -0.0059471125714480877
 425    0.19687499105930328  0.3333333432674408  0.1799999326467514
 426    0.19687499105930328  0.46666669845581055  -6.7520886659622192e-08
 427    0.19687499105930328  0.46666669845581055  0.17999991774559021
 428    0.19687499105930328  0.59999996423721313  -8.3384406934783328e-08
 429    0.19687499105930328  0.59999996423721313  0.17999990284442902
 430    0.328125  -0.59999990463256836  5.0788109717814223e-08
 431    0.328125  -0.59999990463256836  0.18000003695487976
 432    0.328125  -0.46666669845581055  3.4924596548080444e-08
 433    0.328125  -0.46666669845581055  0.18000002205371857
 434    0.32812240719795227  -0.33333072066307068  1.9441358745098114e-08
 435    0.328125  -0.3333333432674408  0.18000000715255737
 436    0.26368919014930725  -0.13807502388954163  -0.023216277360916138
 437    0.28409749269485474  -0.17281949520111084  -0.0059430547989904881
 438    0.328125  -0.20000001788139343  0.17999999225139618
 439    0.27089709043502808  -0.073053628206253052  -0.041197586804628372
 440    0.33653393387794495  -0.078307010233402252  -0.0029121940024197102
 441    0.328125  -0.066666670143604279  0.17999997735023499
 442    0.27089712023735046  0.073053725063800812  -0.041197571903467178
 443    0.3367379903793335  0.078354507684707642  -0.0028737091924995184
 444    0.328125  0.066666670143604279  0.1799999475479126
 445    0.26368939876556396  0.13807514309883118  -0.023216139525175095
 446    0.28409752249717712  0.17281951010227203  -0.0059430957771837711
 447    0.328125  0.20000001788139343  0.1799999475479126
 448    0.32812237739562988  0.33333072066307068  -6.0012098401784897e-08
 449    0.328125  0.3333333432674408  0.1799999326467514
 450    0.328125  0.46666669845581055  -7.5914776687113772e-08
 451    0.328125  0.46666669845581055  0.17999990284442902
 452    0.328125  0.59999996423721313  -8.9903664957091678e-08
 453    0.328125  0.59999996423721313  0.17999988794326782
 454    0.45937499403953552  -0.59999990463256836  1.9724138837773353e-05
 455    0.52000004053115845  -0.59999990463256836  0.18000002205371857
 456    0.52000004053115845  -0.59999996423721313  0.32999998331069946
 457    0.52000010013580322  -0.59999996423721313  0.4699999988079071
 458    0.52000010013580322  -0.59999996423721313  0.61000001430511475
 459    0.52000010013580322  -0.60000002384185791  0.75
 460    0.52000010013580322  -0.60000002384185791  0.84999996423721313
 461    0.45937499403953552  -0.46666669845581055  2.7474015951156616e-08
 462    0.51999998092651367  -0.46666669845581055  0.18000000715255737
 463    0.51999998092651367  -0.46666669845581055  0.32999998331069946
 464    0.51999998092651367  -0.46666669845581055  0.47000002861022949
 465    0.52000004053115845  -0.46666669845581055  0.61000001430511475
 466    0.52000004053115845  -0.46666669845581055  0.75
 467    0.52000010013580322  -0.46666666865348816  0.84999996423721313
 468    0.45937499403953552  -0.3333333432674408  1.2110831448808312e-08
 469    0.51999998092651367  -0.3333333432674408  0.17999999225139618
 470    0.51999998092651367  -0.3333333432674408  0.32999998331069946
 471    0.51999998092651367  -0.3333333432674408  0.47000002861022949
 472    0.52000004053115845  -0.3333333432674408  0.61000001430511475
 473    0.52000004053115845  -0.3333333432674408  0.75
 474    0.52000004053115845  -0.3333333432674408  0.84999990463256836
 475    0.45937499403953552  -0.20000001788139343  -1.862645149230957e-09
 476    0.51999998092651367  -0.20000001788139343  0.17999997735023499
 477    0.51999998092651367  -0.20000001788139343  0.32999998331069946
 478    0.51999998092651367  -0.20000001788139343  0.47000002861022949
 479    0.52000004053115845  -0.20000001788139343  0.61000001430511475
 480    0.52000004053115845  -0.20000001788139343  0.75
 481    0.52000004053115845  -0.20000000298023224  0.84999990463256836
 482    0.45937499403953552  -0.066666670143604279  -2.7755049814004451e-08
 483    0.51999998092651367  -0.066666670143604279  0.17999996244907379
 484    0.51999998092651367  -0.066666670143604279  0.32999998331069946
 485    0.51999998092651367  -0.066666670143604279  0.47000002861022949
 486    0.52000004053115845  -0.066666670143604279  0.61000001430511475
 487    0.52000004053115845  -0.066666670143604279  0.75
 488    0.52000004053115845  -0.066666670143604279  0.84999990463256836
 489    0.45937499403953552  0.066666670143604279  -4.4052967496099882e-08
 490    0.51999998092651367  0.066666670143604279  0.1799999475479126
 491    0.51999998092651367  0.066666670143604279  0.32999998331069946
 492    0.51999998092651367  0.066666670143604279  0.47000002861022949
 493    0.52000004053115845  0.066666670143604279  0.61000001430511475
 494    0.52000004053115845  0.066666670143604279  0.75
 495    0.52000004053115845  0.066666670143604279  0.84999990463256836
 496    0.45937499403953552  0.20000001788139343  -4.8894435167312622e-08
 497    0.51999998092651367  0.20000000298023224  0.1799999326467514
 498    0.51999998092651367  0.20000001788139343  0.32999998331069946
 499    0.51999998092651367  0.20000001788139343  0.47000002861022949
 500    0.52000004053115845  0.20000001788139343  0.61000001430511475
 501    0.52000004053115845  0.20000001788139343  0.75
 502    0.52000004053115845  0.20000001788139343  0.84999984502792358
 503    0.45937499403953552  0.3333333432674408  -8.9138666226062924e-08
 504    0.51999998092651367  0.3333333432674408  0.17999991774559021
 505    0.51999998092651367  0.3333333432674408  0.32999998331069946
 506    0.51999998092651367  0.3333333432674408  0.47000002861022949
 507    0.52000004053115845  0.3333333432674408  0.61000001430511475
 508    0.52000004053115845  0.3333333432674408  0.75
 509    0.52000004053115845  0.3333333432674408  0.84999984502792358
 510    0.45937499403953552  0.46666666865348816  -1.0543675443841494e-07
 511    0.5199999213218689  0.46666666865348816  0.17999990284442902
 512    0.51999998092651367  0.46666669845581055  0.32999998331069946
 513    0.51999998092651367  0.46666669845581055  0.47000002861022949
 514    0.52000004053115845  0.46666669845581055  0.61000001430511475
 515    0.52000004053115845  0.46666669845581055  0.75
 516    0.52000004053115845  0.46666669845581055  0.84999984502792358
 517    0.45937499403953552  0.59999996423721313  -9.8285568128630985e-08
 518    0.5199999213218689  0.59999996423721313  0.17999990284442902
 519    0.5199999213218689  0.59999990463256836  0.33000001311302185
 520    0.5199999213218689  0.59999990463256836  0.47000002861022949
 521    0.51999998092651367  0.59999990463256836  0.61000001430511475
 522    0.51999998092651367  0.59999984502792358  0.75
 523    0.51999998092651367  0.59999984502792358  0.84999984502792358
 524    0.59062498807907104  -0.59999990463256836  6.1867154954597936e-08
 525    0.59062498807907104  -0.59999990463256836  0.18999999761581421
 526    0.59062498807907104  -0.59999996423721313  0.32999998331069946
 527    0.59062498807907104  -0.59999996423721313  0.47000002861022949
 528    0.59062498807907104  -0.59999996423721313  0.61000001430511475
 529    0.59062498807907104  -0.60000002384185791  0.75
 530    0.59062498807907104  -0.60000002384185791  0.84999996423721313
 531    0.59062498807907104  -0.46666666865348816  1.9120195204891388e-08
 532    0.59062498807907104  -0.46666669845581055  0.84999996423721313
 533    0.59062498807907104  -0.3333333432674408  3.7252900764173091e-09
 534    0.59062498807907104  -0.3333333432674408  0.84999990463256836
 535    0.59062999486923218  -0.19999462366104126  0.0001831590780057013
 536    0.59062498807907104  -0.20000001788139343  0.84999990463256836
 537    0.63026189804077148  -0.067299157381057739  -0.0015637911856174469
 538    0.59062498807907104  -0.066666670143604279  0.84999990463256836
 539    0.63026189804077148  0.067299164831638336  -0.001563807250931859
 540    0.59062498807907104  0.066666670143604279  0.84999990463256836
 541    0.59062999486923218  0.19999462366104126  0.00021133344853296876
 542    0.59062498807907104  0.20000001788139343  0.84999984502792358
 543    0.59062498807907104  0.3333333432674408  -7.5902789831161499e-08
 544    0.59062498807907104  0.3333333432674408  0.84999984502792358
 545    0.59062498807907104  0.46666669845581055  -9.214179641503506e-08
 546    0.59062498807907104  0.46666669845581055  0.84999984502792358
 547    0.59062498807907104  0.59999996423721313  -1.0803636030232155e-07
 548    0.59062498807907104  0.59999996423721313  0.18999999761581421
 549    0.59062498807907104  0.59999990463256836  0.32999998331069946
 550    0.59062498807907104  0.59999990463256836  0.47000002861022949
 551    0.59062498807907104  0.59999990463256836  0.61000001430511475
 552    0.59062498807907104  0.59999990463256836  0.75
 553    0.59062498807907104  0.59999984502792358  0.84999978542327881
 554    0.72187501192092896  -0.59999990463256836  2.6901238570076202e-08
 555    0.68000006675720215  -0.59999990463256836  0.18000002205371857
 556    0.68000006675720215  -0.59999996423721313  0.32999998331069946
 557    0.68000006675720215  -0.59999996423721313  0.4699999988079071
 558    0.68000012636184692  -0.59999996423721313  0.61000001430511475
 559    0.68000012636184692  -0.59999996423721313  0.75
 560    0.68000012636184692  -0.60000002384185791  0.84999996423721313
 561    0.72187501192092896  -0.46666666865348816  1.1006677347324967e-08
 562    0.68000000715255737  -0.46666669845581055  0.17999999225139618
 563    0.68000000715255737  -0.46666669845581055  0.32999998331069946
 564    0.68000000715255737  -0.46666669845581055  0.47000002861022949
 565    0.68000006675720215  -0.46666669845581055  0.61000001430511475
 566    0.68000006675720215  -0.46666669845581055  0.75
 567    0.68000006675720215  -0.46666666865348816  0.84999990463256836
 568    0.72187501192092896  -0.3333333432674408  -4.8878900926752067e-09
 569    0.68000000715255737  -0.3333333432674408  0.17999997735023499
 570    0.68000000715255737  -0.3333333432674408  0.32999998331069946
 571    0.68000000715255737  -0.3333333432674408  0.47000002861022949
 572    0.68000006675720215  -0.3333333432674408  0.61000001430511475
 573    0.68000006675720215  -0.3333333432674408  0.75
 574    0.68000006675720215  -0.3333333432674408  0.84999990463256836
 575    0.71890157461166382  -0.16036012768745422  -0.00076478353003039956
 576    0.68058556318283081  -0.16362212598323822  0.17999996244907379
 577    0.68000000715255737  -0.19997996091842651  0.32998961210250854
 578    0.68000000715255737  -0.20000001788139343  0.47000002861022949
 579    0.68000006675720215  -0.20000001788139343  0.61000001430511475
 580    0.68000006675720215  -0.20000001788139343  0.75
 581    0.68000006675720215  -0.20000000298023224  0.84999990463256836
 582    0.70550930500030518  -0.07965676486492157  -0.022091755643486977
 583    0.65628480911254883  -0.13329584896564484  -0.00014293985441327095
 584    0.7065543532371521  8.5145868133906788e-10  0.25347894430160522
 585    0.6840483546257019  -0.067724592983722687  0.28437098860740662
 586    0.68000000715255737  -0.066666670143604279  0.47000002861022949
 587    0.68000006675720215  -0.066666670143604279  0.61000001430511475
 588    0.68000006675720215  -0.066666670143604279  0.75
 589    0.68000006675720215  -0.066666670143604279  0.84999990463256836
 590    0.70550930500030518  0.07965676486492157  -0.022091774269938469
 591    0.65628480911254883  0.13329584896564484  -0.0001429716357961297
 592    0.7065543532371521  8.514590699171265e-10  0.25347894430160522
 593    0.6840483546257019  0.06772458553314209  0.28437095880508423
 594    0.68000000715255737  0.066666670143604279  0.47000002861022949
 595    0.68000006675720215  0.066666670143604279  0.61000001430511475
 596    0.68000006675720215  0.066666670143604279  0.75
 597    0.68000006675720215  0.066666670143604279  0.84999984502792358
 598    0.71890139579772949  0.16036045551300049  -0.00076478964183479548
 599    0.68058556318283081  0.16362211108207703  0.17999991774559021
 600    0.68000000715255737  0.19997996091842651  0.32998961210250854
 601    0.68000000715255737  0.20000001788139343  0.47000002861022949
 602    0.68000006675720215  0.20000001788139343  0.61000001430511475
 603    0.68000006675720215  0.20000001788139343  0.75
 604    0.68000006675720215  0.20000001788139343  0.84999984502792358
 605    0.72187501192092896  0.3333333432674408  -8.4360749497136567e-08
 606    0.68000000715255737  0.3333333432674408  0.17999990284442902
 607    0.68000000715255737  0.3333333432674408  0.32999998331069946
 608    0.68000000715255737  0.3333333432674408  0.47000002861022949
 609    0.68000006675720215  0.3333333432674408  0.61000001430511475
 610    0.68000006675720215  0.3333333432674408  0.75
 611    0.68000006675720215  0.3333333432674408  0.84999984502792358
 612    0.72187501192092896  0.46666669845581055  -1.0025531338442306e-07
 613    0.68000000715255737  0.46666666865348816  0.17999990284442902
 614    0.68000000715255737  0.46666669845581055  0.32999998331069946
 615    0.68000000715255737  0.46666669845581055  0.47000002861022949
 616    0.68000006675720215  0.46666669845581055  0.61000001430511475
 617    0.68000006675720215  0.46666669845581055  0.75
 618    0.68000006675720215  0.46666669845581055  0.84999984502792358
 619    0.72187507152557373  0.60000002384185791  -1.1614989148256427e-07
 620    0.6799999475479126  0.59999996423721313  0.17999988794326782
 621    0.6799999475479126  0.59999990463256836  0.33000001311302185
 622    0.6799999475479126  0.59999990463256836  0.47000002861022949
 623    0.68000000715255737  0.59999990463256836  0.61000001430511475
 624    0.68000000715255737  0.59999990463256836  0.75
 625    0.68000000715255737  0.59999984502792358  0.84999978542327881
 626    0.90000003576278687  -0.59999990463256836  2.5207215870182154e-08
 627    0.90000003576278687  -0.59999990463256836  0.18000000715255737
 628    0.89999997615814209  -0.46666669845581055  -4.5119463720766362e-12
 629    0.89999997615814209  -0.46666666865348816  0.17999999225139618
 630    0.89999997615814209  -0.3333333432674408  -1.5899082939085929e-08
 631    0.89999997615814209  -0.3333333432674408  0.17999996244907379
 632    0.89982700347900391  -0.15074208378791809  -3.7654899642802775e-08
 633    0.89982700347900391  -0.1507420688867569  0.1799999475479126
 634    0.85558289289474487  -0.070681050419807434  -0.026204364374279976
 635    0.89944958686828613  -0.11521304398775101  -0.0013424074277281761
 636    0.88386332988739014  -0.0051801037043333054  0.20625680685043335
 637    0.85558289289474487  0.070681057870388031  -0.026204377412796021
 638    0.89944958686828613  0.1152130663394928  -0.0013424335047602654
 639    0.88386332988739014  0.0051801032386720181  0.20625680685043335
 640    0.89982706308364868  0.15074062347412109  -7.3594492278061807e-08
 641    0.89982700347900391  0.1507420539855957  0.17999991774559021
 642    0.89999997615814209  0.3333333432674408  -9.5371916586373118e-08
 643    0.89999997615814209  0.3333333432674408  0.17999988794326782
 644    0.89999991655349731  0.46666666865348816  -1.1126650178994169e-07
 645    0.89999997615814209  0.46666669845581055  0.17999987304210663
 646    0.89999991655349731  0.60000002384185791  2.5023535243917649e-08
 647    0.89999991655349731  0.60000002384185791  0.17999985814094543
 648    -0.84079856567989364  0.10470312402768368  0.20244161420877774
# Generated by 
